#!OML:ASF F:\VICON\USERDATA\INSTALL\rory3\rory3.ASF
:FULLY-SPECIFIED
:DEGREES
518
root 4.2456 20.0678 7.09952 17.5117 -9.3789 -8.26896
lowerback 0.140948 0.969187 5.24438
upperback -5.92736 1.6041 2.51168
thorax -6.1848 0.590652 -0.400964
lowerneck -10.9712 -4.353 -5.03761
upperneck 21.674 -5.72133 2.81058
head 8.80486 -2.82856 1.16637
rclavicle -2.67272e-014 -1.69961e-014
rhumerus -36.9417 3.72358 -82.7927
rradius 43.9553
rwrist 8.64456
rhand -23.0573 -51.6968
rfingers 7.12502
rthumb 3.38774 -81.6496
lclavicle -2.67272e-014 -1.69961e-014
lhumerus -46.9166 -12.6308 84.3151
lradius 41.3393
lwrist -2.20051
lhand -28.8887 -37.9705
lfingers 7.12502
lthumb -2.24423 -8.00252
rfemur -87.2379 -10.1679 23.7964
rtibia 133.544
rfoot -1.0069 0.206442
rtoes -8.80885
lfemur -20.413 0.658698 -10.7857
ltibia 16.0842
lfoot 23.3749 7.47978
ltoes -12.1788
519
root 4.30685 19.8867 7.08184 17.4551 -9.73071 -7.92837
lowerback 0.18136 0.97831 4.89349
upperback -5.92985 1.59924 2.36023
thorax -6.21181 0.601587 -0.364387
lowerneck -11.2436 -4.33013 -4.85133
upperneck 21.684 -5.69511 2.7254
head 8.84878 -2.80676 1.10397
rclavicle -9.87401e-015 -1.19768e-014
rhumerus -36.6989 3.54918 -82.8111
rradius 44.1577
rwrist 8.71847
rhand -22.8202 -52.1455
rfingers 7.12502
rthumb 3.61669 -82.0946
lclavicle -9.87401e-015 -1.19768e-014
lhumerus -47.1508 -12.656 84.3042
lradius 41.5913
lwrist -2.4124
lhand -29.1622 -37.9462
lfingers 7.12502
lthumb -2.50836 -7.98123
rfemur -88.7952 -10.404 23.8608
rtibia 134.679
rfoot -1.43125 0.391543
rtoes -8.9578
lfemur -20.5475 1.85216 -11.7497
ltibia 17.0671
lfoot 24.0052 6.41355
ltoes -14.3505
520
root 4.36457 19.6916 7.06398 17.4479 -10.2018 -7.78166
lowerback -0.0355516 1.08923 4.70618
upperback -5.74698 1.70987 2.20842
thorax -5.88569 0.670575 -0.419631
lowerneck -11.4789 -4.34072 -4.77438
upperneck 21.4053 -5.73853 2.87327
head 8.80039 -2.80287 1.13256
rclavicle -1.04983e-014 5.36719e-015
rhumerus -36.2815 3.2144 -82.848
rradius 44.5238
rwrist 8.63544
rhand -23.2786 -52.0742
rfingers 7.12502
rthumb 3.17408 -82.0304
lclavicle -1.04983e-014 5.36719e-015
lhumerus -46.9352 -12.8662 84.196
lradius 41.7945
lwrist -2.53579
lhand -29.2575 -38.3982
lfingers 7.12502
lthumb -2.60035 -8.43434
rfemur -90.2692 -10.0836 24.0961
rtibia 135.61
rfoot -1.7002 0.326866
rtoes -8.53281
lfemur -20.7128 3.10898 -12.5152
ltibia 18.1539
lfoot 24.4881 5.66791
ltoes -14.8154
521
root 4.41496 19.4821 7.04205 17.323 -10.6334 -7.76644
lowerback 0.141309 1.20137 4.55902
upperback -5.71223 1.86186 2.1248
thorax -5.94438 0.750414 -0.435784
lowerneck -11.7479 -4.44702 -4.81068
upperneck 21.4418 -5.88757 2.95879
head 8.87292 -2.86342 1.14411
rclavicle -2.48543e-014 -4.07509e-015
rhumerus -36.388 2.97212 -82.8473
rradius 45.374
rwrist 8.34037
rhand -23.2888 -52.4787
rfingers 7.12502
rthumb 3.1642 -82.435
lclavicle -2.48543e-014 -4.07509e-015
lhumerus -47.0862 -13.041 84.11
lradius 42.2422
lwrist -2.75376
lhand -29.5464 -39.2409
lfingers 7.12502
lthumb -2.87944 -9.28063
rfemur -91.4551 -9.56944 24.5486
rtibia 136.397
rfoot -1.83179 0.025836
rtoes -8.13988
lfemur -20.7658 4.24901 -13.048
ltibia 19.2937
lfoot 23.5872 5.73305
ltoes -16.1579
522
root 4.46837 19.2572 7.01972 17.0982 -10.982 -7.72652
lowerback 0.696788 1.19663 4.42629
upperback -5.86989 1.89275 2.09279
thorax -6.43346 0.760209 -0.409966
lowerneck -10.1518 -4.06677 -5.56283
upperneck 20.1008 -5.50924 4.17291
head 8.16626 -2.64818 1.75363
rclavicle -1.13183e-014 8.15017e-015
rhumerus -36.7943 3.11013 -82.9447
rradius 46.1618
rwrist 8.14712
rhand -23.1546 -53.274
rfingers 7.12502
rthumb 3.29376 -83.2283
lclavicle -1.13183e-014 8.15017e-015
lhumerus -47.618 -12.9664 83.9652
lradius 42.7649
lwrist -3.05078
lhand -29.8936 -40.176
lfingers 7.12502
lthumb -3.21474 -10.2205
rfemur -92.5305 -9.13461 24.9683
rtibia 137.088
rfoot -1.9423 -0.319832
rtoes -8.15473
lfemur -20.6896 5.17929 -13.572
ltibia 20.5002
lfoot 20.6157 6.18873
ltoes -18.5559
523
root 4.53023 19.0266 7.00917 16.8126 -11.3866 -7.63799
lowerback 1.00734 1.22329 4.41048
upperback -5.86381 1.94295 2.00559
thorax -6.60165 0.779909 -0.502131
lowerneck -10.85 -4.08442 -5.29476
upperneck 20.6109 -5.47678 3.74612
head 8.44373 -2.64324 1.55666
rclavicle -2.16178e-015 1.88845e-014
rhumerus -36.8955 3.27835 -83.0399
rradius 46.8099
rwrist 7.97807
rhand -23.2964 -53.3956
rfingers 7.12502
rthumb 3.15685 -83.3519
lclavicle -2.16178e-015 1.88845e-014
lhumerus -47.9629 -13.0062 83.7947
lradius 43.3838
lwrist -3.15759
lhand -29.9092 -40.2286
lfingers 7.12502
lthumb -3.22975 -10.2733
rfemur -93.362 -8.55998 25.165
rtibia 137.595
rfoot -2.26912 -0.814545
rtoes -8.23115
lfemur -20.4587 5.92168 -14.1188
ltibia 21.8238
lfoot 15.4382 6.70963
ltoes -21.4292
524
root 4.59517 18.7957 6.99455 16.3497 -11.7949 -7.60011
lowerback 1.36654 1.30115 4.57542
upperback -5.67563 2.0631 1.87063
thorax -6.59358 0.828683 -0.749954
lowerneck -11.8903 -4.32617 -5.09518
upperneck 21.1692 -5.75444 3.44014
head 8.82376 -2.77356 1.36735
rclavicle 1.07965e-014 1.37161e-014
rhumerus -36.8759 3.25641 -83.0692
rradius 47.7645
rwrist 7.97367
rhand -23.2078 -53.4733
rfingers 7.12502
rthumb 3.24245 -83.4284
lclavicle 1.07965e-014 1.37161e-014
lhumerus -48.139 -13.1311 83.5715
lradius 44.2072
lwrist -3.38802
lhand -29.7984 -39.7386
lfingers 7.12502
lthumb -3.1228 -9.78174
rfemur -93.8237 -7.71916 25.3152
rtibia 137.875
rfoot -2.81846 -1.59623
rtoes -7.74305
lfemur -20.0497 6.59276 -14.5223
ltibia 23.2638
lfoot 9.4271 6.96125
ltoes -25.2501
525
root 4.65342 18.562 6.9575 15.8202 -12.114 -7.50812
lowerback 2.05942 1.29345 4.5657
upperback -5.52897 2.08589 1.76455
thorax -6.83292 0.833789 -0.873396
lowerneck -10.5286 -4.12351 -5.68699
upperneck 19.63 -5.59255 4.48627
head 8.09462 -2.66241 1.86252
rclavicle 9.87711e-015 6.95746e-014
rhumerus -36.842 3.29048 -83.1836
rradius 48.8861
rwrist 8.00591
rhand -22.8894 -54.2182
rfingers 7.12502
rthumb 3.54994 -84.1683
lclavicle 9.87711e-015 6.95746e-014
lhumerus -48.2165 -13.0782 83.1933
lradius 44.9949
lwrist -3.84316
lhand -29.7373 -40.0343
lfingers 7.12502
lthumb -3.06372 -10.0766
rfemur -94.3032 -6.86086 25.5633
rtibia 137.982
rfoot -3.36114 -2.5272
rtoes -7.02415
lfemur -19.8372 7.17479 -14.865
ltibia 24.8236
lfoot 4.48786 7.13111
ltoes -27.6626
526
root 4.70741 18.3316 6.91883 15.3604 -12.5054 -7.24094
lowerback 2.80046 1.30351 4.24761
upperback -5.51753 2.1207 1.65487
thorax -7.25394 0.856262 -0.833004
lowerneck -10.5405 -4.16117 -5.41378
upperneck 19.3831 -5.60289 4.09218
head 7.9957 -2.68492 1.68528
rclavicle 7.72775e-015 2.14687e-014
rhumerus -36.9778 3.37558 -83.3062
rradius 50.0386
rwrist 7.91251
rhand -22.7172 -55.5917
rfingers 7.12502
rthumb 3.71624 -85.539
lclavicle 7.72775e-015 2.14687e-014
lhumerus -48.3348 -13.0824 82.8789
lradius 45.6342
lwrist -4.26953
lhand -29.7545 -41.0798
lfingers 7.12502
lthumb -3.08038 -11.1223
rfemur -94.7806 -5.91169 25.6344
rtibia 137.851
rfoot -3.74009 -3.48999
rtoes -7.08195
lfemur -20.024 7.56481 -15.3031
ltibia 26.6061
lfoot 0.0234224 7.83433
ltoes -29.2036
527
root 4.76912 18.1017 6.89829 14.9569 -12.7587 -6.87072
lowerback 3.18144 1.29015 4.08494
upperback -5.49784 2.10156 1.45787
thorax -7.45217 0.845815 -0.956836
lowerneck -10.8255 -4.20107 -5.05809
upperneck 19.3523 -5.63149 3.71355
head 8.01667 -2.70451 1.49274
rclavicle 2.5196e-014 -1.92821e-014
rhumerus -37.2871 3.36763 -83.456
rradius 51.3814
rwrist 7.91466
rhand -22.9061 -56.5804
rfingers 7.12502
rthumb 3.5338 -86.5309
lclavicle 2.5196e-014 -1.92821e-014
lhumerus -48.3756 -13.2287 82.58
lradius 46.087
lwrist -4.62309
lhand -29.8647 -42.1054
lfingers 7.12502
lthumb -3.18681 -12.1495
rfemur -95.0584 -5.05843 25.4368
rtibia 137.51
rfoot -4.21558 -4.38861
rtoes -7.67803
lfemur -20.4528 7.85966 -15.8725
ltibia 28.6258
lfoot -4.44802 8.80713
ltoes -28.1146
528
root 4.83188 17.8738 6.8838 14.6343 -12.7061 -6.66071
lowerback 3.22462 1.17951 4.27247
upperback -5.28292 1.94718 1.25397
thorax -7.24075 0.759709 -1.25992
lowerneck -11.0349 -4.2259 -5.02638
upperneck 18.9619 -5.71067 4.02225
head 7.93643 -2.7086 1.57805
rclavicle -1.88473e-014 4.17448e-015
rhumerus -37.1416 3.21438 -83.6856
rradius 52.2591
rwrist 8.37198
rhand -24.6524 -52.8834
rfingers 7.12502
rthumb 1.84729 -82.8551
lclavicle -1.88473e-014 4.17448e-015
lhumerus -47.9448 -13.2736 82.0325
lradius 46.4167
lwrist -4.9779
lhand -30.0006 -43.187
lfingers 7.12502
lthumb -3.31807 -13.2331
rfemur -95.1558 -4.10248 25.4166
rtibia 136.934
rfoot -4.76265 -5.45703
rtoes -8.05448
lfemur -21.0254 8.30814 -16.3521
ltibia 30.6474
lfoot -8.34466 9.43238
ltoes -25.0628
529
root 4.88204 17.647 6.84866 14.6024 -13.3424 -6.26782
lowerback 3.18427 1.33971 3.84505
upperback -5.11645 2.11075 1.0139
thorax -7.03241 0.862971 -1.28452
lowerneck -11.5553 -4.38777 -5.15465
upperneck 18.7734 -5.95691 4.41185
head 7.9961 -2.79008 1.69141
rclavicle 1.17034e-014 -1.5704e-014
rhumerus -36.8095 2.80797 -83.723
rradius 52.7526
rwrist 9.51976
rhand -26.3603 -55.2987
rfingers 7.12502
rthumb 0.197728 -85.2784
lclavicle 1.17034e-014 -1.5704e-014
lhumerus -47.3142 -13.2232 81.3578
lradius 46.9052
lwrist -5.4581
lhand -30.0314 -44.3533
lfingers 7.12502
lthumb -3.34776 -14.3998
rfemur -95.8821 -1.95113 24.9551
rtibia 136.196
rfoot -4.68478 -6.57881
rtoes -7.82606
lfemur -22.0031 9.39026 -17.2877
ltibia 32.5332
lfoot -11.8271 10.1102
ltoes -20.5854
530
root 4.92189 17.4155 6.80503 14.5243 -13.932 -4.68083
lowerback 3.00716 1.46019 2.09328
upperback -5.09436 2.12095 0.528952
thorax -6.93973 0.949346 -0.808678
lowerneck -11.9632 -4.5749 -5.38518
upperneck 18.7202 -6.21881 4.75803
head 8.0849 -2.89069 1.80675
rclavicle 2.05991e-014 -1.19271e-014
rhumerus -36.8455 2.37527 -83.5646
rradius 53.7883
rwrist 10.7608
rhand -26.4709 -52.8582
rfingers 7.12502
rthumb 0.0909427 -82.8379
lclavicle 2.05991e-014 -1.19271e-014
lhumerus -46.5887 -13.2828 80.6886
lradius 47.3144
lwrist -5.99823
lhand -29.7732 -45.063
lfingers 7.12502
lthumb -3.09843 -15.1057
rfemur -97.3006 -1.48737 23.4222
rtibia 135.649
rfoot -4.90422 -6.69444
rtoes -6.67523
lfemur -23.2903 10.039 -19.53
ltibia 34.2482
lfoot -14.9496 11.1578
ltoes -18.2204
